<svg width="16" height="75" viewBox="0 0 16 75" fill="none" xmlns="http://www.w3.org/2000/svg">
<rect width="16" height="75" fill="#262626"/>
<g id="dealers" clip-path="url(#clip0_0_1)">
<rect width="375" height="11164" transform="translate(-177 -1942)" fill="white"/>
<g id="how it works" clip-path="url(#clip1_0_1)">
<rect width="378" height="4344" transform="translate(-180 -518)" fill="white"/>
<g id="container">
<path id="Line 1" d="M7.29289 74.7071C7.68341 75.0976 8.31658 75.0976 8.7071 74.7071L15.0711 68.3431C15.4616 67.9526 15.4616 67.3195 15.0711 66.9289C14.6805 66.5384 14.0474 66.5384 13.6569 66.9289L8 72.5858L2.34314 66.9289C1.95262 66.5384 1.31945 66.5384 0.928929 66.9289C0.538405 67.3195 0.538405 67.9526 0.928929 68.3431L7.29289 74.7071ZM7 -4.37114e-08L7 74L9 74L9 4.37114e-08L7 -4.37114e-08Z" fill="#9C8D7F"/>
</g>
</g>
</g>
<defs>
<clipPath id="clip0_0_1">
<rect width="375" height="11164" fill="white" transform="translate(-177 -1942)"/>
</clipPath>
<clipPath id="clip1_0_1">
<rect width="378" height="4344" fill="white" transform="translate(-180 -518)"/>
</clipPath>
</defs>
</svg>
