<svg width="12" height="12" viewBox="0 0 12 12" fill="none" xmlns="http://www.w3.org/2000/svg">
<path d="M4.26953 12C3.31641 12 2.49609 11.6562 1.80859 10.9688C1.13672 10.2969 0.800781 9.48438 0.800781 8.53125C0.800781 7.5625 1.14453 6.74219 1.83203 6.07031L7.10547 0.773438C7.62109 0.257812 8.24609 0 8.98047 0C9.73047 0 10.3633 0.265625 10.8789 0.796875C11.4102 1.3125 11.6758 1.94531 11.6758 2.69531C11.6758 3.42969 11.4102 4.05469 10.8789 4.57031L6.44922 9.02344C6.07422 9.38281 5.62891 9.5625 5.11328 9.5625C4.59766 9.5625 4.15234 9.38281 3.77734 9.02344C3.40234 8.64844 3.21484 8.20312 3.21484 7.6875C3.21484 7.17188 3.40234 6.72656 3.77734 6.35156L7.55078 2.57812C7.67578 2.45312 7.80078 2.45312 7.92578 2.57812L8.32422 2.97656C8.46484 3.11719 8.46484 3.25 8.32422 3.375L4.57422 7.14844C4.41797 7.28906 4.33984 7.46875 4.33984 7.6875C4.33984 7.89062 4.41797 8.07031 4.57422 8.22656C4.73047 8.36719 4.91016 8.4375 5.11328 8.4375C5.33203 8.4375 5.51172 8.36719 5.65234 8.22656L10.1055 3.77344C10.4023 3.47656 10.5508 3.11719 10.5508 2.69531C10.5508 2.25781 10.3945 1.89062 10.082 1.59375C9.78516 1.28125 9.41797 1.125 8.98047 1.125C8.55859 1.125 8.19141 1.27344 7.87891 1.57031L2.60547 6.84375C2.15234 7.3125 1.92578 7.875 1.92578 8.53125C1.92578 9.17188 2.15234 9.72656 2.60547 10.1953C3.07422 10.6484 3.62891 10.875 4.26953 10.875C4.92578 10.875 5.48828 10.6406 5.95703 10.1719C7.48828 8.64062 9.01172 7.10938 10.5273 5.57812C10.668 5.45312 10.8008 5.45312 10.9258 5.57812L11.3242 5.97656C11.4648 6.11719 11.4648 6.25 11.3242 6.375C9.77734 7.9375 8.25391 9.46875 6.75391 10.9688C6.06641 11.6562 5.23828 12 4.26953 12Z" fill="#BDBDBD"/>
</svg>
