<svg width="31" height="28" viewBox="0 1 31 28" fill="none" xmlns="http://www.w3.org/2000/svg">
<rect width="29.5234" height="27.5234" transform="translate(0.675781 0.238281)" fill="transparent"/>
<path d="M15.2344 14L18.1406 16.9062C18.2188 16.9844 18.2188 17.0703 18.1406 17.1641L17.6016 17.7031C17.5078 17.7812 17.4219 17.7812 17.3438 17.7031L16.8516 17.1875L14.4375 14.7969L11.5312 17.7031C11.4531 17.7812 11.3672 17.7812 11.2734 17.7031L10.7344 17.1641C10.6562 17.0703 10.6562 16.9844 10.7344 16.9062L13.6406 14L10.7344 11.0938C10.6562 11.0156 10.6562 10.9297 10.7344 10.8359L11.2734 10.2969C11.3672 10.2188 11.4531 10.2188 11.5312 10.2969L14.4375 13.2031L17.3438 10.2969C17.4219 10.2188 17.5078 10.2188 17.6016 10.2969L18.1406 10.8359C18.2188 10.9297 18.2188 11.0156 18.1406 11.0938L17.625 11.5859L15.2344 14Z" fill="#BDBDBD"/>
</svg>
