<svg width="18" height="24" viewBox="0 0 18 24" fill="none" xmlns="http://www.w3.org/2000/svg">
<path d="M3.14751 0H11.1777L17.9753 7.09195V20.8779C17.9753 22.6023 16.5776 24 14.8531 24H3.14751C1.42305 24 0.0253906 22.6023 0.0253906 20.8779V3.12212C0.0253906 1.39769 1.42305 0 3.14751 0Z" fill="#6F6AF8"/>
<path opacity="0.302" fill-rule="evenodd" clip-rule="evenodd" d="M11.168 0V7.0337H17.9752L11.168 0Z" fill="white"/>
<g clip-path="url(#clip0_404_25454)">
<path d="M14.1764 7.82378C13.078 6.72541 11.2973 6.72541 10.1989 7.82376L7.84829 10.1744C6.71216 11.3106 6.81734 13.1209 7.84829 14.1519C8.02093 14.3245 8.21194 14.4653 8.41365 14.5809L8.84267 14.1519C9.12406 13.8704 9.02501 13.5415 9.01995 13.3041C8.95819 13.2603 8.89812 13.213 8.84267 13.1575C8.31362 12.6285 8.28983 11.7216 8.84267 11.1688C8.92477 11.0867 11.1434 8.868 11.1933 8.81817C11.7417 8.26975 12.6336 8.26975 13.182 8.81817C13.7304 9.36658 13.7304 10.2585 13.182 10.8069L11.6283 12.3607C11.6732 12.6093 11.9428 13.1981 11.8041 14.1696C11.8109 14.1629 11.819 14.1586 11.8258 14.1519L14.1764 11.8013C15.2747 10.7029 15.2747 8.92216 14.1764 7.82378Z" fill="white"/>
<path d="M10.334 11.6654C10.1614 11.4927 9.97035 11.3519 9.76869 11.2363L9.33967 11.6654C9.05823 11.9467 9.15728 12.2757 9.16234 12.5131C9.22414 12.5569 9.28422 12.6042 9.33967 12.6597C9.86872 13.1887 9.89251 14.0956 9.33967 14.6484C9.25738 14.7307 6.85494 17.1332 6.80687 17.1812C6.25846 17.7296 5.36654 17.7296 4.81813 17.1812C4.26971 16.6328 4.26971 15.7409 4.81813 15.1925L6.55407 13.4565C6.50914 13.2079 6.23947 12.619 6.3782 11.6476C6.37143 11.6543 6.36327 11.6586 6.35652 11.6653L3.82375 14.1981C2.72542 15.2965 2.72542 17.0773 3.82375 18.1756C4.92212 19.274 6.70283 19.274 7.80121 18.1756L10.334 15.6428C11.4491 14.5278 11.3881 12.7195 10.334 11.6654Z" fill="white"/>
</g>
<defs>
<clipPath id="clip0_404_25454">
<rect width="12" height="12" fill="white" transform="translate(3 7)"/>
</clipPath>
</defs>
</svg>
