<svg width="26" height="26" viewBox="0 0 26 26" fill="none" xmlns="http://www.w3.org/2000/svg">
<g id="carbon:location-filled">
<path id="Vector" d="M12.9447 2.50781C10.6763 2.51045 8.50161 3.39816 6.89763 4.97622C5.29365 6.55428 4.39136 8.69384 4.38868 10.9256C4.38596 12.7493 4.99147 14.5236 6.11232 15.9762C6.11232 15.9762 6.34567 16.2785 6.38378 16.3221L12.9447 23.9348L19.5087 16.3183C19.5429 16.2777 19.777 15.9762 19.777 15.9762L19.7778 15.9739C20.8981 14.5219 21.5033 12.7485 21.5007 10.9256C21.498 8.69384 20.5957 6.55428 18.9917 4.97622C17.3877 3.39816 15.213 2.51045 12.9447 2.50781ZM12.9447 13.9866C12.3293 13.9866 11.7278 13.807 11.2161 13.4707C10.7045 13.1343 10.3057 12.6563 10.0702 12.097C9.83475 11.5376 9.77314 10.9222 9.89319 10.3284C10.0132 9.73461 10.3096 9.18919 10.7447 8.76111C11.1798 8.33302 11.7342 8.04148 12.3377 7.92338C12.9412 7.80527 13.5668 7.86588 14.1353 8.09756C14.7038 8.32924 15.1897 8.72158 15.5316 9.22496C15.8735 9.72834 16.0559 10.3201 16.0559 10.9256C16.0549 11.7371 15.7268 12.5151 15.1435 13.0889C14.5603 13.6627 13.7695 13.9855 12.9447 13.9866Z" fill="#10101C"/>
</g>
</svg>
