<svg width="16" height="16" viewBox="0 0 16 16" fill="none" xmlns="http://www.w3.org/2000/svg">
<g id="shell">
<path id="Vector" d="M9.33302 7.33394C9.33302 7.68756 9.19254 8.0267 8.94249 8.27675C8.69244 8.52679 8.3533 8.66727 7.99968 8.66727C7.64606 8.66727 7.30692 8.52679 7.05687 8.27675C6.80683 8.0267 6.66635 7.68756 6.66635 7.33394C6.66635 6.62669 6.9473 5.94841 7.4474 5.44832C7.94749 4.94822 8.62577 4.66727 9.33302 4.66727C10.0403 4.66727 10.7185 4.94822 11.2186 5.44832C11.7187 5.94841 11.9997 6.62669 11.9997 7.33394C11.9997 8.3948 11.5783 9.41222 10.8281 10.1624C10.078 10.9125 9.06055 11.3339 7.99968 11.3339C6.93882 11.3339 5.9214 10.9125 5.17126 10.1624C4.42111 9.41222 3.99968 8.3948 3.99968 7.33394C3.99968 5.91945 4.56159 4.56289 5.56178 3.5627C6.56197 2.56251 7.91853 2.0006 9.33302 2.0006C10.7475 2.0006 12.1041 2.56251 13.1043 3.5627C14.1044 4.56289 14.6663 5.91945 14.6663 7.33394C14.6663 9.10205 13.964 10.7977 12.7137 12.048C11.4635 13.2982 9.76779 14.0006 7.99968 14.0006C6.23157 14.0006 4.53588 13.2982 3.28564 12.048C2.03539 10.7977 1.33302 9.10205 1.33302 7.33394C1.33056 5.59633 1.89721 3.90573 2.94635 2.5206C3.0485 2.36995 3.18041 2.24181 3.33397 2.14407C3.48752 2.04633 3.65946 1.98107 3.83919 1.9523C4.01892 1.92354 4.20264 1.93187 4.37902 1.9768C4.55541 2.02173 4.72073 2.1023 4.8648 2.21354C5.00887 2.32478 5.12863 2.46435 5.21672 2.62363C5.3048 2.78292 5.35934 2.95855 5.37698 3.13971C5.39461 3.32087 5.37496 3.50373 5.31925 3.67701C5.26353 3.85029 5.17293 4.01033 5.05302 4.14727" stroke="white" stroke-linecap="round" stroke-linejoin="round"/>
</g>
</svg>
