<svg width="64" height="65" viewBox="0 0 64 65" fill="none" xmlns="http://www.w3.org/2000/svg">
<g id="icon / iconoir / three-stars">
<path id="Vector" d="M12.3595 38.9403L15.1302 33.0656C15.4859 32.3115 16.5134 32.3115 16.8691 33.0656L19.6398 38.9403L25.8359 39.8883C26.6309 40.0099 26.9477 41.0325 26.3722 41.6195L21.8895 46.1891L22.9475 52.6448C23.0833 53.4739 22.2518 54.1059 21.5405 53.7144L15.9997 50.6648L10.4588 53.7144C9.74751 54.1059 8.91602 53.4739 9.05189 52.6448L10.1098 46.1891L5.62714 41.6195C5.05159 41.0325 5.36845 40.0099 6.16343 39.8883L12.3595 38.9403Z" stroke="#475569" stroke-width="1.5" stroke-linecap="round" stroke-linejoin="round"/>
<path id="Vector_2" d="M44.3594 38.9403L47.1303 33.0656C47.4858 32.3115 48.5135 32.3115 48.869 33.0656L51.6399 38.9403L57.8359 39.8883C58.6308 40.0099 58.9476 41.0325 58.3722 41.6195L53.8895 46.1891L54.9474 52.6448C55.0834 53.4739 54.2519 54.1059 53.5404 53.7144L47.9996 50.6648L42.4588 53.7144C41.7474 54.1059 40.9159 53.4739 41.0519 52.6448L42.1098 46.1891L37.6271 41.6195C37.0516 41.0325 37.3684 40.0099 38.1634 39.8883L44.3594 38.9403Z" stroke="#475569" stroke-width="1.5" stroke-linecap="round" stroke-linejoin="round"/>
<path id="Vector_3" d="M28.3594 14.9404L31.1303 9.06562C31.4858 8.31146 32.5135 8.31146 32.869 9.06562L35.6399 14.9404L41.8359 15.8883C42.6309 16.0099 42.9477 17.0326 42.3722 17.6194L37.8895 22.189L38.9474 28.6448C39.0834 29.4739 38.2519 30.1059 37.5405 29.7144L31.9997 26.6647L26.4588 29.7144C25.7475 30.1059 24.916 29.4739 25.0519 28.6448L26.1098 22.189L21.6271 17.6194C21.0516 17.0326 21.3684 16.0099 22.1634 15.8883L28.3594 14.9404Z" stroke="#475569" stroke-width="1.5" stroke-linecap="round" stroke-linejoin="round"/>
</g>
</svg>
