<svg width="16" height="16" viewBox="0 0 16 16" fill="none" xmlns="http://www.w3.org/2000/svg">
<path id="&#239;&#141;&#155;" d="M13.6452 13.6774C12.0968 15.2258 10.2151 16 8 16C5.78495 16 3.89247 15.2258 2.32258 13.6774C0.774194 12.1075 0 10.2151 0 8C0 5.78495 0.774194 3.90323 2.32258 2.35484C3.89247 0.784946 5.78495 0 8 0C10.2151 0 12.0968 0.784946 13.6452 2.35484C15.2151 3.90323 16 5.78495 16 8C16 10.2151 15.2151 12.1075 13.6452 13.6774ZM12.5484 3.45161C11.3011 2.1828 9.78495 1.54839 8 1.54839C6.21505 1.54839 4.68817 2.1828 3.41935 3.45161C2.17204 4.69892 1.54839 6.21505 1.54839 8C1.54839 9.78495 2.17204 11.3118 3.41935 12.5806C4.68817 13.828 6.21505 14.4516 8 14.4516C9.78495 14.4516 11.3011 13.828 12.5484 12.5806C13.8172 11.3118 14.4516 9.78495 14.4516 8C14.4516 6.21505 13.8172 4.69892 12.5484 3.45161ZM8.64516 12.129H7.35484C7.09677 12.129 6.96774 12 6.96774 11.7419V8H4.80645C4.63441 8 4.51613 7.92473 4.45161 7.77419C4.3871 7.60215 4.4086 7.46237 4.51613 7.35484L7.74194 4.12903C7.91398 3.95699 8.08602 3.95699 8.25806 4.12903L11.4839 7.35484C11.5914 7.46237 11.6129 7.60215 11.5484 7.77419C11.4839 7.92473 11.3656 8 11.1935 8H9.03226V11.7419C9.03226 12 8.90323 12.129 8.64516 12.129Z" fill="#10101C"/>
</svg>
