<svg width="32" height="33" viewBox="0 0 32 33" fill="none" xmlns="http://www.w3.org/2000/svg">
<g id="check">
<path id="Line 1 (Stroke)" fill-rule="evenodd" clip-rule="evenodd" d="M3.7072 15.0313C4.09772 14.6408 4.73089 14.6408 5.12141 15.0313L12.7072 22.6171C13.0977 23.0076 13.0977 23.6408 12.7072 24.0313C12.3167 24.4218 11.6835 24.4219 11.293 24.0313L3.7072 16.4455C3.31668 16.055 3.31668 15.4218 3.7072 15.0313Z" fill="#BDBDBD"/>
<path id="Line 1 (Stroke)_2" fill-rule="evenodd" clip-rule="evenodd" d="M3.7072 15.0313C4.09772 14.6408 4.73089 14.6408 5.12141 15.0313L12.7072 22.6171C13.0977 23.0076 13.0977 23.6408 12.7072 24.0313C12.3167 24.4218 11.6835 24.4219 11.293 24.0313L3.7072 16.4455C3.31668 16.055 3.31668 15.4218 3.7072 15.0313Z" fill="#BDBDBD"/>
<path id="Line 2 (Stroke)" fill-rule="evenodd" clip-rule="evenodd" d="M11.7928 23.5313C11.4023 23.1408 11.4023 22.5076 11.7928 22.1171L27.83 6.07997C28.2206 5.68945 28.8537 5.68945 29.2442 6.07997C29.6348 6.4705 29.6348 7.10366 29.2442 7.49419L13.207 23.5313C12.8165 23.9219 12.1833 23.9218 11.7928 23.5313Z" fill="#BDBDBD"/>
</g>
</svg>
