<svg width="34" height="31" viewBox="0 0 34 31" fill="none" xmlns="http://www.w3.org/2000/svg">
<g id="social media">
<ellipse id="Ellipse 797" cx="17.21" cy="15.305" rx="16.4337" ry="15.305" fill="#10101C"/>
<path id="Vector" d="M22.9346 10.4251C21.869 10.0398 20.7446 9.76483 19.5894 9.60701C19.5789 9.60562 19.5682 9.60682 19.5586 9.61044C19.549 9.61406 19.5411 9.61993 19.536 9.62724C19.3911 9.82952 19.2309 10.0941 19.119 10.3013C17.8737 10.1524 16.6071 10.1524 15.3619 10.3013C15.237 10.0705 15.0957 9.84547 14.9387 9.62724C14.9334 9.62001 14.9255 9.61421 14.916 9.6106C14.9064 9.60699 14.8957 9.60574 14.8853 9.60701C13.7298 9.76398 12.6051 10.0391 11.54 10.4251C11.5309 10.4278 11.5233 10.4329 11.5185 10.4396C9.38828 12.9472 8.80386 15.3932 9.09042 17.8085C9.09145 17.8199 9.10069 17.8312 9.11199 17.8385C10.3524 18.5624 11.7399 19.115 13.2152 19.473C13.2256 19.4756 13.2368 19.4755 13.2472 19.4727C13.2575 19.4699 13.2665 19.4646 13.2727 19.4576C13.5891 19.1178 13.8705 18.7593 14.1129 18.3822C14.118 18.3745 14.1197 18.3656 14.1178 18.357C14.116 18.3484 14.1107 18.3405 14.1026 18.3345C14.0973 18.3305 14.091 18.3275 14.0841 18.3256C13.6416 18.1916 13.2131 18.0306 12.8023 17.8441C12.7909 17.839 12.7823 17.8306 12.7785 17.8207C12.7747 17.8107 12.7759 17.8 12.7818 17.7907C12.7853 17.7847 12.7906 17.7794 12.7972 17.7754C12.8835 17.7244 12.9698 17.671 13.0519 17.6176C13.0592 17.613 13.0679 17.61 13.0771 17.609C13.0863 17.608 13.0957 17.609 13.1043 17.6119C15.7943 18.5797 18.7061 18.5797 21.3632 17.6119C21.372 17.6089 21.3818 17.6078 21.3914 17.6088C21.401 17.6098 21.41 17.6128 21.4176 17.6176C21.4998 17.671 21.586 17.7244 21.6723 17.7754C21.6793 17.7794 21.6849 17.7847 21.6887 17.7909C21.6924 17.797 21.6941 17.8038 21.6937 17.8106C21.6933 17.8174 21.6908 17.8241 21.6863 17.8299C21.6819 17.8358 21.6756 17.8407 21.6682 17.8441C21.2584 18.0324 20.8293 18.1931 20.3854 18.3248C20.3783 18.3268 20.3719 18.33 20.3665 18.3342C20.3612 18.3384 20.3571 18.3435 20.3546 18.3491C20.3522 18.3545 20.3512 18.3602 20.3518 18.3659C20.3523 18.3716 20.3543 18.3772 20.3576 18.3822C20.6041 18.7585 20.8866 19.1178 21.1968 19.4576C21.203 19.4646 21.212 19.4699 21.2223 19.4727C21.2327 19.4755 21.2439 19.4756 21.2543 19.473C22.7321 19.1162 24.1218 18.5634 25.3637 17.8385C25.3699 17.8351 25.3751 17.8306 25.3788 17.8255C25.3825 17.8203 25.3848 17.8145 25.3853 17.8085C25.7283 15.0162 24.8111 12.5903 22.9552 10.4404C22.9533 10.4369 22.9505 10.4337 22.947 10.431C22.9434 10.4284 22.9392 10.4263 22.9346 10.4251ZM14.5145 16.3375C13.7041 16.3375 13.0375 15.7517 13.0375 15.0332C13.0375 14.3138 13.6918 13.728 14.5145 13.728C15.3434 13.728 16.0038 14.3187 15.9915 15.0332C15.9915 15.7517 15.3372 16.3375 14.5145 16.3375ZM19.9745 16.3375C19.1652 16.3375 18.4976 15.7517 18.4976 15.0332C18.4976 14.3138 19.1518 13.728 19.9745 13.728C20.8034 13.728 21.4648 14.3187 21.4515 15.0332C21.4515 15.7517 20.8034 16.3375 19.9745 16.3375Z" fill="white"/>
</g>
</svg>
