<svg width="21" height="25" viewBox="0 0 21 25" fill="none" xmlns="http://www.w3.org/2000/svg">
<path id="Vector" d="M19.8675 11.7148C18.5528 10.4223 16.7998 9.53805 14.9739 9.19794C14.1705 8.99387 13.367 8.85782 12.5636 8.7898C14.6087 6.54507 14.2435 3.14396 11.8332 1.23934C9.42295 -0.665281 5.77102 -0.32517 3.72594 1.91956C1.68086 4.16429 2.04606 7.5654 4.45633 9.47002C4.89456 9.81013 5.33279 10.0822 5.77102 10.2183V11.7148L4.6024 10.6944C3.57986 9.74211 1.89998 9.74211 0.804401 10.6944C-0.218138 11.6467 -0.291177 13.1432 0.731362 14.0955L4.09113 17.7687C4.23721 18.721 4.6024 19.6053 5.11367 20.4216C5.47887 21.0338 5.99014 21.646 6.50141 22.1221V23.4146C6.50141 23.8227 6.79356 24.0948 7.23179 24.0948H17.165C17.5302 24.0948 17.8954 23.7547 17.8954 23.4146V21.646C19.2831 20.0815 20.0135 18.1088 20.0135 16.1362V12.1909C20.0866 11.9188 20.0135 11.7828 19.8675 11.7148ZM3.79898 5.32067C3.79898 3.07594 5.77102 1.30736 8.18129 1.37538C10.5916 1.37538 12.4906 3.21198 12.4175 5.45671C12.4175 6.68111 11.8332 7.76947 10.8107 8.51771V5.1166C10.7734 4.5271 10.4954 3.97322 10.0336 3.5685C9.57191 3.16377 8.96144 2.93887 8.32737 2.93989C7.01268 2.87187 5.84406 3.8922 5.84406 5.1166V8.65376C4.6024 7.97354 3.87202 6.68111 3.79898 5.32067ZM18.6258 16.0682C18.6988 17.8368 18.0415 19.5373 16.7998 20.8978C16.6538 21.0338 16.5077 21.1698 16.5077 21.3739V22.8024H8.03521V21.8501C8.03521 21.646 7.88914 21.4419 7.74306 21.3059C7.23179 20.8978 6.79356 20.4216 6.42837 19.8094C5.99014 19.1292 5.69798 18.3129 5.55191 17.4966C5.55191 17.3606 5.47887 17.2246 5.40583 17.0885L1.89998 13.2112C1.68086 13.0072 1.53479 12.7351 1.53479 12.395C1.53479 12.1229 1.68086 11.7828 1.89998 11.5787C2.41125 11.1706 3.14163 11.1706 3.6529 11.5787L5.77102 13.5514V15.592L7.15875 14.9118V5.1166C7.23179 4.64045 7.67002 4.23232 8.25433 4.30034C8.7656 4.30034 9.27687 4.64045 9.27687 5.1166V12.9392L10.7376 13.2112V10.0822C10.8107 10.0142 10.8837 10.0142 10.9568 9.94618C11.468 9.94618 11.9793 10.0142 12.4906 10.0822V13.5514L13.6592 13.7554V10.2183L14.5356 10.4223C14.9008 10.4904 15.266 10.6264 15.6312 10.7624V14.1636L16.7998 14.3676V11.2386C17.4572 11.5107 18.0415 11.9188 18.5528 12.395L18.6258 16.0682Z" fill="white"/>
</svg>
