<svg width="25" height="25" viewBox="0 0 25 25" fill="none" xmlns="http://www.w3.org/2000/svg">
<path id="Union" fill-rule="evenodd" clip-rule="evenodd" d="M0.25 3.85856C0.25 2.26756 1.541 0.976562 3.132 0.976562C4.722 0.976562 6.013 2.26756 6.014 3.85856C6.014 5.44956 4.723 6.76756 3.132 6.76756C1.541 6.76756 0.25 5.44956 0.25 3.85856ZM24.244 24.9766V24.9756H24.25V16.1736C24.25 11.8676 23.323 8.55056 18.289 8.55056C15.869 8.55056 14.245 9.87856 13.582 11.1376H13.512V8.95256H8.739V24.9756H13.709V17.0416C13.709 14.9526 14.105 12.9326 16.692 12.9326C19.241 12.9326 19.279 15.3166 19.279 17.1756V24.9766H24.244ZM0.646 8.95356H5.622V24.9766H0.646V8.95356Z" fill="black"/>
</svg>
