<svg width="25" height="26" viewBox="0 0 25 26" fill="none" xmlns="http://www.w3.org/2000/svg">
<g id="carbon:location-filled">
<path id="Vector" d="M12.4447 2.50586C10.1763 2.50849 8.00161 3.3962 6.39763 4.97427C4.79365 6.55233 3.89136 8.69189 3.88868 10.9236C3.88596 12.7474 4.49147 14.5216 5.61232 15.9743C5.61232 15.9743 5.84567 16.2765 5.88378 16.3201L12.4447 23.9328L19.0087 16.3163C19.0429 16.2758 19.277 15.9743 19.277 15.9743L19.2778 15.972C20.3981 14.52 21.0033 12.7465 21.0007 10.9236C20.998 8.69189 20.0957 6.55233 18.4917 4.97427C16.8877 3.3962 14.713 2.50849 12.4447 2.50586ZM12.4447 13.9846C11.8293 13.9846 11.2278 13.8051 10.7161 13.4687C10.2045 13.1324 9.80572 12.6543 9.57023 12.095C9.33475 11.5357 9.27314 10.9202 9.39319 10.3264C9.51323 9.73266 9.80955 9.18724 10.2447 8.75915C10.6798 8.33106 11.2342 8.03953 11.8377 7.92142C12.4412 7.80331 13.0668 7.86393 13.6353 8.09561C14.2038 8.32729 14.6897 8.71963 15.0316 9.22301C15.3735 9.72638 15.5559 10.3182 15.5559 10.9236C15.5549 11.7351 15.2268 12.5131 14.6435 13.0869C14.0603 13.6608 13.2695 13.9836 12.4447 13.9846Z" fill="white"/>
</g>
</svg>
