<svg width="25" height="25" viewBox="0 0 25 25" fill="none" xmlns="http://www.w3.org/2000/svg">
<g id="Vector">
<mask id="path-1-inside-1_2116_697" fill="white">
<path d="M9.87008 1.32688L10.1394 2.41787C9.07788 2.68023 8.06188 3.10088 7.12557 3.66568L6.54939 2.70084C7.58001 2.07671 8.69977 1.6134 9.87008 1.32688ZM15.6318 1.32688L15.3625 2.41787C16.424 2.68023 17.44 3.10088 18.3764 3.66568L18.9594 2.70084C17.926 2.07726 16.8041 1.61401 15.6318 1.32688ZM2.47524 6.77158C1.8517 7.80371 1.38843 8.92451 1.10128 10.0957L2.19227 10.365C2.45463 9.30348 2.87528 8.28748 3.44008 7.35117L2.47524 6.77158ZM1.8752 12.9766C1.87512 12.431 1.91615 11.8863 1.99794 11.3469L0.886496 11.1764C0.705804 12.3686 0.705804 13.5811 0.886496 14.7733L1.99794 14.6062C1.91628 14.0668 1.87525 13.5221 1.8752 12.9766ZM18.9525 23.2489L18.3764 22.2874C17.4415 22.8528 16.4266 23.2735 15.3659 23.5353L15.6353 24.6262C16.8041 24.337 17.9225 23.8726 18.9525 23.2489ZM23.6267 12.9766C23.6267 13.5221 23.5857 14.0668 23.504 14.6062L24.6154 14.7733C24.7961 13.5811 24.7961 12.3686 24.6154 11.1764L23.504 11.3469C23.5858 11.8863 23.6268 12.431 23.6267 12.9766ZM24.4006 15.854L23.3097 15.5847C23.0479 16.6475 22.6272 17.6647 22.0618 18.602L23.0267 19.1815C23.6508 18.1485 24.1141 17.0265 24.4006 15.854ZM14.3806 23.7296C13.3003 23.8933 12.2016 23.8933 11.1213 23.7296L10.9542 24.841C12.1452 25.0217 13.3567 25.0217 14.5477 24.841L14.3806 23.7296ZM21.5061 19.427C20.8581 20.3058 20.0811 21.0816 19.2014 21.7283L19.8696 22.6352C20.8386 21.9219 21.6958 21.0681 22.413 20.1021L21.5061 19.427ZM19.2014 4.2214C20.0812 4.86935 20.8582 5.64633 21.5061 6.52611L22.413 5.85106C21.6983 4.88412 20.8434 4.02919 19.8765 3.31452L19.2014 4.2214ZM3.9958 6.52611C4.64375 5.64633 5.42073 4.86935 6.30051 4.2214L5.62546 3.31452C4.65852 4.02919 3.80359 4.88412 3.08892 5.85106L3.9958 6.52611ZM23.0267 6.77158L22.0618 7.35117C22.6272 8.286 23.0479 9.30096 23.3097 10.3616L24.4006 10.0923C24.1135 8.92218 23.6502 7.80251 23.0267 6.77158ZM11.1213 2.22354C12.2016 2.05987 13.3003 2.05987 14.3806 2.22354L14.5477 1.1121C13.3567 0.931385 12.1452 0.931385 10.9542 1.1121L11.1213 2.22354ZM4.57198 22.9352L2.25023 23.4739L2.79231 21.1521L1.69792 20.8964L1.15583 23.2182C1.12192 23.3621 1.11671 23.5114 1.14051 23.6573C1.16432 23.8033 1.21667 23.9431 1.29456 24.0688C1.37246 24.1945 1.47438 24.3037 1.59448 24.3899C1.71459 24.4762 1.85053 24.538 1.99453 24.5717C2.16293 24.6092 2.33752 24.6092 2.50593 24.5717L4.82768 24.0364L4.57198 22.9352ZM1.92975 19.8941L3.02755 20.1464L3.40258 18.5372C2.85492 17.6185 2.44701 16.6234 2.19227 15.5847L1.10128 15.854C1.34668 16.8483 1.71788 17.8073 2.20591 18.7076L1.92975 19.8941ZM7.18012 22.3284L5.57091 22.7034L5.82661 23.8012L7.00965 23.525C7.90935 24.0145 8.86848 24.3858 9.86326 24.6296L10.1326 23.5387C9.09709 23.2806 8.10556 22.8704 7.19035 22.3215L7.18012 22.3284ZM12.751 3.22588C7.36422 3.22929 3.00369 7.59664 3.00369 12.98C3.00666 14.8136 3.5253 16.6093 4.50038 18.1622L3.56282 22.1647L7.56196 21.2271C12.1202 24.0944 18.1411 22.7272 21.0084 18.1724C23.8756 13.6175 22.5119 7.59664 17.957 4.72599C16.3977 3.74539 14.593 3.22538 12.751 3.22588Z"/>
</mask>
<path d="M9.87008 1.32688L10.1394 2.41787C9.07788 2.68023 8.06188 3.10088 7.12557 3.66568L6.54939 2.70084C7.58001 2.07671 8.69977 1.6134 9.87008 1.32688ZM15.6318 1.32688L15.3625 2.41787C16.424 2.68023 17.44 3.10088 18.3764 3.66568L18.9594 2.70084C17.926 2.07726 16.8041 1.61401 15.6318 1.32688ZM2.47524 6.77158C1.8517 7.80371 1.38843 8.92451 1.10128 10.0957L2.19227 10.365C2.45463 9.30348 2.87528 8.28748 3.44008 7.35117L2.47524 6.77158ZM1.8752 12.9766C1.87512 12.431 1.91615 11.8863 1.99794 11.3469L0.886496 11.1764C0.705804 12.3686 0.705804 13.5811 0.886496 14.7733L1.99794 14.6062C1.91628 14.0668 1.87525 13.5221 1.8752 12.9766ZM18.9525 23.2489L18.3764 22.2874C17.4415 22.8528 16.4266 23.2735 15.3659 23.5353L15.6353 24.6262C16.8041 24.337 17.9225 23.8726 18.9525 23.2489ZM23.6267 12.9766C23.6267 13.5221 23.5857 14.0668 23.504 14.6062L24.6154 14.7733C24.7961 13.5811 24.7961 12.3686 24.6154 11.1764L23.504 11.3469C23.5858 11.8863 23.6268 12.431 23.6267 12.9766ZM24.4006 15.854L23.3097 15.5847C23.0479 16.6475 22.6272 17.6647 22.0618 18.602L23.0267 19.1815C23.6508 18.1485 24.1141 17.0265 24.4006 15.854ZM14.3806 23.7296C13.3003 23.8933 12.2016 23.8933 11.1213 23.7296L10.9542 24.841C12.1452 25.0217 13.3567 25.0217 14.5477 24.841L14.3806 23.7296ZM21.5061 19.427C20.8581 20.3058 20.0811 21.0816 19.2014 21.7283L19.8696 22.6352C20.8386 21.9219 21.6958 21.0681 22.413 20.1021L21.5061 19.427ZM19.2014 4.2214C20.0812 4.86935 20.8582 5.64633 21.5061 6.52611L22.413 5.85106C21.6983 4.88412 20.8434 4.02919 19.8765 3.31452L19.2014 4.2214ZM3.9958 6.52611C4.64375 5.64633 5.42073 4.86935 6.30051 4.2214L5.62546 3.31452C4.65852 4.02919 3.80359 4.88412 3.08892 5.85106L3.9958 6.52611ZM23.0267 6.77158L22.0618 7.35117C22.6272 8.286 23.0479 9.30096 23.3097 10.3616L24.4006 10.0923C24.1135 8.92218 23.6502 7.80251 23.0267 6.77158ZM11.1213 2.22354C12.2016 2.05987 13.3003 2.05987 14.3806 2.22354L14.5477 1.1121C13.3567 0.931385 12.1452 0.931385 10.9542 1.1121L11.1213 2.22354ZM4.57198 22.9352L2.25023 23.4739L2.79231 21.1521L1.69792 20.8964L1.15583 23.2182C1.12192 23.3621 1.11671 23.5114 1.14051 23.6573C1.16432 23.8033 1.21667 23.9431 1.29456 24.0688C1.37246 24.1945 1.47438 24.3037 1.59448 24.3899C1.71459 24.4762 1.85053 24.538 1.99453 24.5717C2.16293 24.6092 2.33752 24.6092 2.50593 24.5717L4.82768 24.0364L4.57198 22.9352ZM1.92975 19.8941L3.02755 20.1464L3.40258 18.5372C2.85492 17.6185 2.44701 16.6234 2.19227 15.5847L1.10128 15.854C1.34668 16.8483 1.71788 17.8073 2.20591 18.7076L1.92975 19.8941ZM7.18012 22.3284L5.57091 22.7034L5.82661 23.8012L7.00965 23.525C7.90935 24.0145 8.86848 24.3858 9.86326 24.6296L10.1326 23.5387C9.09709 23.2806 8.10556 22.8704 7.19035 22.3215L7.18012 22.3284ZM12.751 3.22588C7.36422 3.22929 3.00369 7.59664 3.00369 12.98C3.00666 14.8136 3.5253 16.6093 4.50038 18.1622L3.56282 22.1647L7.56196 21.2271C12.1202 24.0944 18.1411 22.7272 21.0084 18.1724C23.8756 13.6175 22.5119 7.59664 17.957 4.72599C16.3977 3.74539 14.593 3.22538 12.751 3.22588Z" fill="black"/>
<path d="M10.1394 2.41787L10.3793 3.38866L11.3499 3.14879L11.1103 2.17819L10.1394 2.41787ZM7.12557 3.66568L6.26701 4.17839L6.782 5.04078L7.64209 4.52196L7.12557 3.66568ZM6.54939 2.70084L6.03138 1.84547L5.18128 2.36028L5.69083 3.21355L6.54939 2.70084ZM15.3625 2.41787L14.3917 2.17819L14.152 3.14879L15.1226 3.38866L15.3625 2.41787ZM18.3764 3.66568L17.8598 4.52196L18.7155 5.0381L19.2322 4.18284L18.3764 3.66568ZM18.9594 2.70084L19.8152 3.21801L20.3327 2.36163L19.476 1.84466L18.9594 2.70084ZM2.47524 6.77158L2.99018 5.91436L2.13511 5.40071L1.61932 6.25448L2.47524 6.77158ZM1.10128 10.0957L0.13005 9.85755L-0.107698 10.8272L0.861604 11.0665L1.10128 10.0957ZM2.19227 10.365L1.95259 11.3359L2.92319 11.5755L3.16306 10.6049L2.19227 10.365ZM3.44008 7.35117L4.29636 7.86769L4.81384 7.00984L3.95502 6.49394L3.44008 7.35117ZM1.99794 11.3469L2.98663 11.4968L3.13631 10.5098L2.14954 10.3585L1.99794 11.3469ZM0.886496 11.1764L1.0381 10.188L0.0479106 10.0361L-0.102212 11.0266L0.886496 11.1764ZM0.886496 14.7733L-0.102212 14.9231L0.0474612 15.9106L1.03513 15.7622L0.886496 14.7733ZM1.99794 14.6062L2.14657 15.5951L3.13652 15.4463L2.98667 14.4565L1.99794 14.6062ZM18.9525 23.2489L19.4705 24.1043L20.322 23.5886L19.8103 22.7348L18.9525 23.2489ZM18.3764 22.2874L19.2341 21.7734L18.718 20.9122L17.8589 21.4317L18.3764 22.2874ZM15.3659 23.5353L15.1263 22.5644L14.1554 22.804L14.3951 23.7749L15.3659 23.5353ZM15.6353 24.6262L14.6644 24.8659L14.9042 25.8373L15.8755 25.597L15.6353 24.6262ZM23.504 14.6062L22.5153 14.4565L22.3654 15.4463L23.3554 15.5951L23.504 14.6062ZM24.6154 14.7733L24.4668 15.7622L25.4545 15.9106L25.6041 14.9231L24.6154 14.7733ZM24.6154 11.1764L25.6041 11.0266L25.454 10.0361L24.4638 10.188L24.6154 11.1764ZM23.504 11.3469L23.3524 10.3585L22.3656 10.5098L22.5153 11.4968L23.504 11.3469ZM23.3097 15.5847L23.5493 14.6138L22.5779 14.374L22.3387 15.3456L23.3097 15.5847ZM22.0618 18.602L21.2056 18.0854L20.6881 18.9433L21.5469 19.4592L22.0618 18.602ZM23.0267 19.1815L22.5117 20.0388L23.3668 20.5524L23.8826 19.6987L23.0267 19.1815ZM14.3806 23.7296L15.3695 23.5809L15.2207 22.5909L14.2308 22.7409L14.3806 23.7296ZM11.1213 23.7296L11.2711 22.7409L10.2812 22.5909L10.1324 23.5809L11.1213 23.7296ZM10.9542 24.841L9.96535 24.6924L9.81692 25.6799L10.8042 25.8297L10.9542 24.841ZM14.5477 24.841L14.6977 25.8297L15.685 25.6799L15.5366 24.6924L14.5477 24.841ZM21.5061 19.427L22.1032 18.6248L21.2975 18.0251L20.7013 18.8335L21.5061 19.427ZM19.2014 21.7283L18.6091 20.9226L17.8025 21.5156L18.3964 22.3215L19.2014 21.7283ZM19.8696 22.6352L19.0646 23.2284L19.6575 24.0331L20.4625 23.4405L19.8696 22.6352ZM22.413 20.1021L23.2159 20.6981L23.8113 19.8962L23.0101 19.2999L22.413 20.1021ZM19.2014 4.2214L18.3992 3.6243L17.7991 4.43056L18.6084 5.0266L19.2014 4.2214ZM21.5061 6.52611L20.7009 7.11912L21.297 7.92842L22.1032 7.32828L21.5061 6.52611ZM22.413 5.85106L23.0101 6.65323L23.8096 6.05815L23.2172 5.25669L22.413 5.85106ZM19.8765 3.31452L20.4708 2.51033L19.6694 1.91797L19.0743 2.71742L19.8765 3.31452ZM3.9958 6.52611L3.3987 7.32828L4.20496 7.92842L4.801 7.11912L3.9958 6.52611ZM6.30051 4.2214L6.89352 5.0266L7.70282 4.43056L7.10268 3.6243L6.30051 4.2214ZM5.62546 3.31452L6.42763 2.71742L5.83255 1.91797L5.03109 2.51033L5.62546 3.31452ZM3.08892 5.85106L2.28473 5.25669L1.69237 6.05815L2.49182 6.65323L3.08892 5.85106ZM22.0618 7.35117L21.5469 6.49394L20.6871 7.01041L21.2061 7.86864L22.0618 7.35117ZM23.3097 10.3616L22.3388 10.6012L22.5784 11.5722L23.5493 11.3325L23.3097 10.3616ZM24.4006 10.0923L24.6403 11.0631L25.6098 10.8238L25.3718 9.85391L24.4006 10.0923ZM11.1213 2.22354L10.1324 2.37218L10.2812 3.36223L11.2711 3.21225L11.1213 2.22354ZM14.3806 2.22354L14.2308 3.21225L15.2207 3.36223L15.3695 2.37218L14.3806 2.22354ZM14.5477 1.1121L15.5366 1.26073L15.685 0.273218L14.6977 0.123412L14.5477 1.1121ZM10.9542 1.1121L10.8042 0.123412L9.81692 0.273218L9.96535 1.26073L10.9542 1.1121ZM4.57198 22.9352L5.54607 22.709L5.31993 21.7351L4.34597 21.9611L4.57198 22.9352ZM2.25023 23.4739L1.27642 23.2465L0.911111 24.8111L2.47624 24.448L2.25023 23.4739ZM2.79231 21.1521L3.76612 21.3795L3.99345 20.4058L3.01983 20.1784L2.79231 21.1521ZM1.69792 20.8964L1.92543 19.9227L0.951507 19.6951L0.724107 20.6691L1.69792 20.8964ZM1.15583 23.2182L2.12918 23.4475L2.12964 23.4456L1.15583 23.2182ZM1.99453 24.5717L1.76662 25.5454L1.77714 25.5478L1.99453 24.5717ZM2.50593 24.5717L2.72332 25.5478L2.73058 25.5461L2.50593 24.5717ZM4.82768 24.0364L5.05233 25.0109L6.0283 24.7859L5.80177 23.8102L4.82768 24.0364ZM1.92975 19.8941L0.955785 19.6674L0.728453 20.6441L1.70578 20.8687L1.92975 19.8941ZM3.02755 20.1464L2.80358 21.121L3.77518 21.3443L4.00146 20.3734L3.02755 20.1464ZM3.40258 18.5372L4.37648 18.7641L4.468 18.3715L4.26153 18.0251L3.40258 18.5372ZM2.19227 15.5847L3.16349 15.3465L2.92494 14.3738L1.95259 14.6138L2.19227 15.5847ZM1.10128 15.854L0.861604 14.8832L-0.109184 15.1228L0.130416 16.0937L1.10128 15.854ZM2.20591 18.7076L3.17987 18.9343L3.2659 18.5647L3.08507 18.2311L2.20591 18.7076ZM7.18012 22.3284L7.40709 23.3023L7.58385 23.2611L7.73486 23.1604L7.18012 22.3284ZM5.57091 22.7034L5.34395 21.7295L4.37016 21.9564L4.59698 22.9302L5.57091 22.7034ZM5.82661 23.8012L4.85268 24.028L5.07964 25.0024L6.05393 24.775L5.82661 23.8012ZM7.00965 23.525L7.48756 22.6466L7.15311 22.4647L6.78233 22.5512L7.00965 23.525ZM9.86326 24.6296L9.62518 25.6009L10.5948 25.8386L10.8341 24.8693L9.86326 24.6296ZM10.1326 23.5387L11.1034 23.7783L11.3426 22.8096L10.3744 22.5683L10.1326 23.5387ZM7.19035 22.3215L7.70467 21.4639L7.16205 21.1385L6.63561 21.4895L7.19035 22.3215ZM3.00369 12.98H2.00369L2.00369 12.9816L3.00369 12.98ZM4.50038 18.1622L5.47403 18.3902L5.56922 17.9838L5.34726 17.6304L4.50038 18.1622ZM3.56282 22.1647L2.58917 21.9366L2.2215 23.5063L3.79107 23.1383L3.56282 22.1647ZM7.56196 21.2271L8.09441 20.3807L7.74063 20.1581L7.33371 20.2535L7.56196 21.2271ZM17.957 4.72599L18.4902 3.87998L18.4894 3.87946L17.957 4.72599ZM8.89923 1.56656L9.16856 2.65755L11.1103 2.17819L10.8409 1.0872L8.89923 1.56656ZM9.89949 1.44708C8.74053 1.73351 7.63129 2.19277 6.60904 2.80941L7.64209 4.52196C8.49248 4.00898 9.41523 3.62694 10.3793 3.38866L9.89949 1.44708ZM7.98413 3.15297L7.40795 2.18813L5.69083 3.21355L6.26701 4.17839L7.98413 3.15297ZM7.0674 3.55622C8.01105 2.98476 9.03633 2.56054 10.1079 2.2982L9.63228 0.35557C8.36322 0.666264 7.14897 1.16867 6.03138 1.84547L7.0674 3.55622ZM14.661 1.0872L14.3917 2.17819L16.3334 2.65755L16.6027 1.56656L14.661 1.0872ZM15.1226 3.38866C16.0867 3.62694 17.0094 4.00898 17.8598 4.52196L18.8929 2.80941C17.8706 2.19277 16.7614 1.73351 15.6024 1.44708L15.1226 3.38866ZM19.2322 4.18284L19.8152 3.21801L18.1035 2.18368L17.5205 3.14852L19.2322 4.18284ZM19.476 1.84466C18.3561 1.16884 17.1402 0.666773 15.8697 0.355594L15.3939 2.29817C16.468 2.56124 17.4959 2.98568 18.4427 3.55702L19.476 1.84466ZM1.61932 6.25448C0.943439 7.37323 0.441297 8.58809 0.13005 9.85755L2.07252 10.3338C2.33557 9.26092 2.75995 8.23419 3.33117 7.28868L1.61932 6.25448ZM0.861604 11.0665L1.95259 11.3359L2.43195 9.39416L1.34096 9.12483L0.861604 11.0665ZM3.16306 10.6049C3.40134 9.64083 3.78338 8.71808 4.29636 7.86769L2.58381 6.83464C1.96717 7.85689 1.50791 8.96613 1.22148 10.1251L3.16306 10.6049ZM3.95502 6.49394L2.99018 5.91436L1.9603 7.62881L2.92514 8.20839L3.95502 6.49394ZM2.8752 12.9764C2.87513 12.4811 2.91238 11.9865 2.98663 11.4968L1.00924 11.197C0.919918 11.786 0.875111 12.3809 0.875201 12.9767L2.8752 12.9764ZM2.14954 10.3585L1.0381 10.188L0.734894 12.1649L1.84634 12.3353L2.14954 10.3585ZM-0.102212 11.0266C-0.297961 12.3181 -0.297961 13.6317 -0.102212 14.9231L1.8752 14.6234C1.70957 13.5306 1.70957 12.4191 1.8752 11.3263L-0.102212 11.0266ZM1.03513 15.7622L2.14657 15.5951L1.8493 13.6173L0.737858 13.7844L1.03513 15.7622ZM2.98667 14.4565C2.9125 13.9667 2.87524 13.4719 2.8752 12.9765L0.875201 12.9766C0.875252 13.5723 0.920046 14.167 1.0092 14.7559L2.98667 14.4565ZM19.8103 22.7348L19.2341 21.7734L17.5186 22.8015L18.0948 23.7629L19.8103 22.7348ZM17.8589 21.4317C17.0103 21.9449 16.089 22.3268 15.1263 22.5644L15.6055 24.5061C16.7641 24.2202 17.8727 23.7606 18.8938 23.1431L17.8589 21.4317ZM14.3951 23.7749L14.6644 24.8659L16.6061 24.3866L16.3368 23.2956L14.3951 23.7749ZM15.8755 25.597C17.1422 25.2835 18.3543 24.7802 19.4705 24.1043L18.4345 22.3935C17.4908 22.965 16.466 23.3905 15.395 23.6555L15.8755 25.597ZM22.6267 12.9765C22.6267 13.4719 22.5894 13.9667 22.5153 14.4565L24.4927 14.7559C24.5819 14.167 24.6267 13.5723 24.6267 12.9766L22.6267 12.9765ZM23.3554 15.5951L24.4668 15.7622L24.7641 13.7844L23.6526 13.6173L23.3554 15.5951ZM25.6041 14.9231C25.7999 13.6317 25.7999 12.3181 25.6041 11.0266L23.6267 11.3263C23.7924 12.4191 23.7924 13.5306 23.6267 14.6234L25.6041 14.9231ZM24.4638 10.188L23.3524 10.3585L23.6556 12.3353L24.767 12.1649L24.4638 10.188ZM22.5153 11.4968C22.5896 11.9865 22.6268 12.4811 22.6267 12.9764L24.6267 12.9767C24.6268 12.3809 24.582 11.786 24.4927 11.197L22.5153 11.4968ZM24.6403 14.8832L23.5493 14.6138L23.07 16.5556L24.161 16.8249L24.6403 14.8832ZM22.3387 15.3456C22.101 16.3107 21.719 17.2343 21.2056 18.0854L22.9181 19.1185C23.5355 18.0951 23.9948 16.9844 24.2806 15.8238L22.3387 15.3456ZM21.5469 19.4592L22.5117 20.0388L23.5416 18.3243L22.5768 17.7447L21.5469 19.4592ZM23.8826 19.6987C24.5592 18.5788 25.0614 17.3624 25.3721 16.0914L23.4292 15.6166C23.1668 16.6905 22.7425 17.7182 22.1708 18.6644L23.8826 19.6987ZM14.2308 22.7409C13.2498 22.8895 12.2521 22.8895 11.2711 22.7409L10.9715 24.7183C12.1511 24.897 13.3508 24.897 14.5304 24.7183L14.2308 22.7409ZM10.1324 23.5809L9.96535 24.6924L11.9431 24.9897L12.1102 23.8782L10.1324 23.5809ZM10.8042 25.8297C12.0947 26.0255 13.4073 26.0255 14.6977 25.8297L14.3977 23.8523C13.3061 24.018 12.1958 24.018 11.1043 23.8523L10.8042 25.8297ZM15.5366 24.6924L15.3695 23.5809L13.3917 23.8782L13.5588 24.9897L15.5366 24.6924ZM20.7013 18.8335C20.113 19.6312 19.4077 20.3355 18.6091 20.9226L19.7937 22.534C20.7545 21.8277 21.6032 20.9803 22.3109 20.0205L20.7013 18.8335ZM18.3964 22.3215L19.0646 23.2284L20.6747 22.042L20.0065 21.1351L18.3964 22.3215ZM20.4625 23.4405C21.5115 22.6683 22.4395 21.744 23.2159 20.6981L21.6101 19.506C20.9521 20.3923 20.1657 21.1755 19.2768 21.8299L20.4625 23.4405ZM23.0101 19.2999L22.1032 18.6248L20.909 20.2292L21.8159 20.9042L23.0101 19.2999ZM18.6084 5.0266C19.4072 5.61489 20.1126 6.32034 20.7009 7.11912L22.3113 5.9331C21.6037 4.97232 20.7552 4.12381 19.7944 3.41621L18.6084 5.0266ZM22.1032 7.32828L23.0101 6.65323L21.8159 5.0489L20.909 5.72394L22.1032 7.32828ZM23.2172 5.25669C22.4434 4.20976 21.5178 3.28412 20.4708 2.51033L19.2821 4.11871C20.1691 4.77427 20.9533 5.55847 21.6088 6.44544L23.2172 5.25669ZM19.0743 2.71742L18.3992 3.6243L20.0036 4.81851L20.6786 3.91162L19.0743 2.71742ZM4.801 7.11912C5.38929 6.32034 6.09474 5.61489 6.89352 5.0266L5.7075 3.41621C4.74672 4.12381 3.89821 4.97232 3.19061 5.9331L4.801 7.11912ZM7.10268 3.6243L6.42763 2.71742L4.8233 3.91162L5.49834 4.81851L7.10268 3.6243ZM5.03109 2.51033C3.98416 3.28412 3.05852 4.20976 2.28473 5.25669L3.89311 6.44544C4.54867 5.55847 5.33287 4.77427 6.21984 4.11871L5.03109 2.51033ZM2.49182 6.65323L3.3987 7.32828L4.5929 5.72394L3.68602 5.0489L2.49182 6.65323ZM22.5117 5.91436L21.5469 6.49394L22.5768 8.2084L23.5416 7.62881L22.5117 5.91436ZM21.2061 7.86864C21.7193 8.7172 22.1012 9.63848 22.3388 10.6012L24.2805 10.122C23.9946 8.96344 23.535 7.8548 22.9175 6.83369L21.2061 7.86864ZM23.5493 11.3325L24.6403 11.0631L24.161 9.12142L23.07 9.39075L23.5493 11.3325ZM25.3718 9.85391C25.0605 8.58546 24.5583 7.37166 23.8824 6.25406L22.171 7.2891C22.7421 8.23336 23.1664 9.2589 23.4295 10.3306L25.3718 9.85391ZM11.2711 3.21225C12.2521 3.06363 13.2498 3.06363 14.2308 3.21225L14.5304 1.23482C13.3508 1.05611 12.1511 1.05611 10.9715 1.23482L11.2711 3.21225ZM15.3695 2.37218L15.5366 1.26073L13.5588 0.963458L13.3917 2.0749L15.3695 2.37218ZM14.6977 0.123412C13.4073 -0.0723873 12.0947 -0.0723873 10.8042 0.123412L11.1043 2.10078C12.1958 1.93516 13.3061 1.93516 14.3977 2.10078L14.6977 0.123412ZM9.96535 1.26073L10.1324 2.37218L12.1102 2.0749L11.9431 0.963458L9.96535 1.26073ZM4.34597 21.9611L2.02422 22.4998L2.47624 24.448L4.79799 23.9093L4.34597 21.9611ZM3.22404 23.7013L3.76612 21.3795L1.8185 20.9248L1.27642 23.2465L3.22404 23.7013ZM3.01983 20.1784L1.92543 19.9227L1.4704 21.8702L2.56479 22.1259L3.01983 20.1784ZM0.724107 20.6691L0.182023 22.9908L2.12964 23.4456L2.67173 21.1238L0.724107 20.6691ZM0.182487 22.9888C0.118423 23.2607 0.108591 23.5426 0.153555 23.8183L2.12748 23.4964C2.12483 23.4801 2.12541 23.4635 2.12918 23.4475L0.182487 22.9888ZM0.153555 23.8183C0.198518 24.094 0.297394 24.3581 0.444527 24.5955L2.1446 23.5421C2.13594 23.5281 2.13012 23.5126 2.12748 23.4964L0.153555 23.8183ZM0.444527 24.5955C0.591663 24.833 0.784167 25.0391 1.01102 25.2021L2.17794 23.5778C2.16459 23.5682 2.15326 23.5561 2.1446 23.5421L0.444527 24.5955ZM1.01102 25.2021C1.23788 25.3651 1.49465 25.4817 1.76664 25.5454L2.22242 23.598C2.20641 23.5943 2.1913 23.5874 2.17794 23.5778L1.01102 25.2021ZM1.77714 25.5478C2.08871 25.6172 2.41174 25.6172 2.72332 25.5478L2.28854 23.5956C2.26331 23.6012 2.23715 23.6012 2.21192 23.5956L1.77714 25.5478ZM2.73058 25.5461L5.05233 25.0109L4.60303 23.062L2.28128 23.5972L2.73058 25.5461ZM5.80177 23.8102L5.54607 22.709L3.5979 23.1614L3.8536 24.2626L5.80177 23.8102ZM1.70578 20.8687L2.80358 21.121L3.25153 19.1718L2.15372 18.9195L1.70578 20.8687ZM4.00146 20.3734L4.37648 18.7641L2.42868 18.3102L2.05365 19.9194L4.00146 20.3734ZM4.26153 18.0251C3.76467 17.1917 3.3946 16.2889 3.16349 15.3465L1.22105 15.8229C1.49942 16.958 1.94517 18.0453 2.54363 19.0492L4.26153 18.0251ZM1.95259 14.6138L0.861604 14.8832L1.34096 16.8249L2.43195 16.5556L1.95259 14.6138ZM0.130416 16.0937C0.396186 17.1705 0.798206 18.209 1.32674 19.1842L3.08507 18.2311C2.63756 17.4055 2.29718 16.5262 2.07215 15.6144L0.130416 16.0937ZM1.23194 18.4809L0.955785 19.6674L2.90372 20.1208L3.17987 18.9343L1.23194 18.4809ZM6.95315 21.3545L5.34395 21.7295L5.79788 23.6773L7.40709 23.3023L6.95315 21.3545ZM4.59698 22.9302L4.85268 24.028L6.80054 23.5743L6.54484 22.4765L4.59698 22.9302ZM6.05393 24.775L7.23697 24.4988L6.78233 22.5512L5.5993 22.8274L6.05393 24.775ZM6.53174 24.4034C7.50705 24.9341 8.54679 25.3365 9.62518 25.6009L10.1013 23.6584C9.19017 23.435 8.31164 23.095 7.48756 22.6466L6.53174 24.4034ZM10.8341 24.8693L11.1034 23.7783L9.16175 23.299L8.89241 24.39L10.8341 24.8693ZM10.3744 22.5683C9.43482 22.3342 8.53512 21.962 7.70467 21.4639L6.67602 23.1791C7.67599 23.7788 8.75935 24.227 9.89077 24.509L10.3744 22.5683ZM6.63561 21.4895L6.62538 21.4963L7.73486 23.1604L7.74508 23.1536L6.63561 21.4895ZM12.7503 2.22588C6.81124 2.22964 2.00369 7.04492 2.00369 12.98H4.00369C4.00369 8.14836 7.91721 4.22894 12.7516 4.22588L12.7503 2.22588ZM2.00369 12.9816C2.00696 15.0028 2.57867 16.9823 3.65351 18.6939L5.34726 17.6304C4.47194 16.2364 4.00635 14.6243 4.00369 12.9784L2.00369 12.9816ZM3.52674 17.9341L2.58917 21.9366L4.53646 22.3928L5.47403 18.3902L3.52674 17.9341ZM3.79107 23.1383L7.79022 22.2007L7.33371 20.2535L3.33457 21.1911L3.79107 23.1383ZM7.02952 22.0736C12.0545 25.2344 18.6929 23.7279 21.8546 18.7051L20.1621 17.6397C17.5894 21.7266 12.1859 22.9543 8.09441 20.3807L7.02952 22.0736ZM21.8546 18.7051C25.0157 13.6835 23.5126 7.04528 18.4902 3.87998L17.4238 5.57199C21.5112 8.148 22.7355 13.5515 20.1621 17.6397L21.8546 18.7051ZM18.4894 3.87946C16.7705 2.79854 14.7812 2.22533 12.7507 2.22588L12.7512 4.22588C14.4048 4.22543 16.0249 4.69225 17.4247 5.57251L18.4894 3.87946Z" fill="black" mask="url(#path-1-inside-1_2116_697)"/>
</g>
</svg>
