<svg width="25" height="25" viewBox="0 0 25 25" fill="none" xmlns="http://www.w3.org/2000/svg">
<g id="Twitter">
<path id="Vector" d="M7.80016 22.2273H7.7999C5.89437 22.2283 4.01825 21.825 2.29258 21.053C4.3128 20.8869 6.2472 20.1317 7.85121 18.8717L8.95236 18.0068L7.55239 17.9786C6.62927 17.9601 5.73497 17.6538 4.9943 17.1025C4.47032 16.7125 4.04173 16.2137 3.73569 15.644C4.2614 15.6575 4.78788 15.5942 5.2982 15.4546L5.26492 14.4821C4.26325 14.2805 3.36232 13.7382 2.71528 12.9474C2.22597 12.3494 1.90469 11.6373 1.77739 10.8837C2.30714 11.0728 2.86477 11.1791 3.43054 11.197L5.1757 11.2524L3.72439 10.2817C2.78868 9.6558 2.12638 8.6971 1.87211 7.60045C1.67298 6.74164 1.73579 5.84869 2.04366 5.03407C3.22956 6.34097 4.64587 7.42185 6.224 8.22141C8.03445 9.13868 10.0175 9.66525 12.0445 9.76696L12.7059 9.80016L12.5567 9.15495C12.3373 8.20633 12.4366 7.21187 12.8391 6.32532C13.2416 5.43876 13.925 4.7095 14.7836 4.25029C15.6421 3.79107 16.628 3.62747 17.5889 3.78478C18.5498 3.94209 19.432 4.41155 20.0993 5.12058L20.289 5.3221L20.5605 5.2684C21.2123 5.13948 21.849 4.9486 22.4623 4.69903C22.1155 5.16994 21.6765 5.57168 21.1668 5.87717L21.4816 6.80269C21.9194 6.75183 22.3528 6.67275 22.7791 6.56617C22.3878 6.97277 21.9603 7.3445 21.5012 7.6765L21.2827 7.8345L21.2947 8.10386C21.3038 8.30724 21.3083 8.51547 21.3083 8.71916C21.3083 15.009 16.521 22.2273 7.80016 22.2273ZM22.907 3.95197C22.133 4.3322 21.3116 4.61014 20.4634 4.77791L22.907 3.95197ZM22.2809 5.65608C21.9792 5.72243 21.6739 5.77363 21.3662 5.80937L21.4239 6.30603L21.681 6.73489C21.9824 6.5542 22.2637 6.34602 22.5218 6.11409C22.8143 6.04542 23.1036 5.9632 23.3886 5.86768L22.2809 5.65608ZM21.8083 8.71916C21.8083 8.50822 21.8036 8.29259 21.7942 8.08166L7.80016 22.7273C16.8545 22.7273 21.8083 15.224 21.8083 8.71916Z" fill="black" stroke="black"/>
</g>
</svg>
