<svg width="33" height="31" viewBox="0 0 33 31" fill="none" xmlns="http://www.w3.org/2000/svg">
<g id="social media">
<ellipse id="Ellipse 795" cx="16.4337" cy="15.305" rx="16.4337" ry="15.305" fill="#10101C"/>
<path id="Vector" d="M23.5325 11.0939C22.9746 11.3384 22.3675 11.5144 21.7421 11.5829C22.3914 11.191 22.8776 10.5719 23.1095 9.84171C22.5003 10.2099 21.8328 10.4682 21.1368 10.6049C20.8459 10.2889 20.494 10.0372 20.1032 9.86543C19.7123 9.69365 19.2909 9.6055 18.865 9.60645C17.1421 9.60645 15.7564 11.0254 15.7564 12.7666C15.7564 13.0111 15.7856 13.2556 15.833 13.4909C13.2531 13.3538 10.9522 12.1016 9.42245 10.1844C9.14373 10.6681 8.99766 11.2188 8.99946 11.7793C8.99946 12.8759 9.54826 13.8429 10.3851 14.4115C9.89195 14.3918 9.41032 14.2541 8.97941 14.0096V14.0485C8.97941 15.5841 10.0478 16.8567 11.4718 17.1494C11.2044 17.2199 10.9294 17.256 10.6531 17.2568C10.4508 17.2568 10.2593 17.2364 10.0661 17.2086C10.4599 18.4608 11.6067 19.3704 12.9723 19.4C11.9039 20.2502 10.5656 20.7504 9.1125 20.7504C8.85178 20.7504 8.61111 20.7411 8.36133 20.7115C9.7397 21.6099 11.3751 22.1286 13.1364 22.1286C18.8541 22.1286 21.9828 17.3161 21.9828 13.1389C21.9828 13.0019 21.9828 12.8648 21.9736 12.7277C22.579 12.2776 23.1095 11.72 23.5325 11.0939Z" fill="white"/>
</g>
</svg>
