<svg width="25" height="25" viewBox="0 0 25 25" fill="none" xmlns="http://www.w3.org/2000/svg">
<path id="Union" fill-rule="evenodd" clip-rule="evenodd" d="M12.25 24.9766C18.867 24.9766 24.25 19.5926 24.25 12.9766C24.25 6.36056 18.866 0.976562 12.25 0.976562C5.634 0.976562 0.25 6.35956 0.25 12.9766C0.25 19.5936 5.633 24.9766 12.25 24.9766ZM12.25 2.47656C18.038 2.47656 22.75 7.18656 22.75 12.9766C22.75 18.7646 18.038 23.4766 12.25 23.4766C6.46 23.4766 1.75 18.7646 1.75 12.9766C1.75 7.18656 6.46 2.47656 12.25 2.47656ZM17.992 6.04756C16.434 4.75356 14.433 3.97656 12.25 3.97656C11.62 3.97656 11.005 4.04256 10.411 4.16556C11.503 5.71356 12.495 7.32456 13.368 8.99456C15.019 8.22456 16.573 7.23156 17.992 6.04756ZM21.236 12.7216C19.181 12.3806 17.108 12.4186 15.116 12.8286C14.776 11.9826 14.41 11.1496 14.016 10.3276C15.819 9.48456 17.517 8.40656 19.061 7.10556C20.369 8.62056 21.176 10.5766 21.236 12.7216ZM11.968 9.56156C11.066 7.85056 10.045 6.20056 8.905 4.62556C6.203 5.70856 4.155 8.06056 3.488 10.9476C6.401 11.0716 9.284 10.5866 11.968 9.56156ZM12.64 10.9206C13.002 11.6716 13.341 12.4306 13.654 13.2016C10.438 14.1676 7.532 16.0906 5.371 18.7746C4.05 17.2086 3.25 15.1866 3.25 12.9766C3.25 12.8479 3.25859 12.7208 3.26715 12.5941C3.27063 12.5425 3.27411 12.491 3.277 12.4396L3.40753 12.4467L3.40759 12.4467C3.75404 12.4656 4.10031 12.4846 4.445 12.4846C7.267 12.4846 10.042 11.9326 12.64 10.9206ZM15.667 14.2476C16.382 16.2436 16.943 18.2946 17.355 20.3846C19.383 18.9856 20.799 16.7756 21.154 14.2226C19.315 13.8976 17.456 13.9116 15.667 14.2476ZM12.25 21.9766C10.031 21.9766 8.005 21.1716 6.435 19.8406C8.438 17.2946 11.169 15.4796 14.193 14.5966C14.968 16.7256 15.568 18.9186 15.98 21.1596C14.843 21.6796 13.582 21.9766 12.25 21.9766Z" fill="black"/>
</svg>
