<svg width="32" height="32" viewBox="0 0 32 32" fill="none" xmlns="http://www.w3.org/2000/svg">
<g id="check">
<path id="Line 1 (Stroke)" fill-rule="evenodd" clip-rule="evenodd" d="M3.7072 14.793C4.09772 14.4025 4.73089 14.4025 5.12141 14.793L12.7072 22.3788C13.0977 22.7694 13.0977 23.4025 12.7072 23.793C12.3167 24.1836 11.6835 24.1836 11.293 23.793L3.7072 16.2073C3.31668 15.8167 3.31668 15.1836 3.7072 14.793Z" fill="#6DD92A"/>
<path id="Line 1 (Stroke)_2" fill-rule="evenodd" clip-rule="evenodd" d="M3.7072 14.793C4.09772 14.4025 4.73089 14.4025 5.12141 14.793L12.7072 22.3788C13.0977 22.7694 13.0977 23.4025 12.7072 23.793C12.3167 24.1836 11.6835 24.1836 11.293 23.793L3.7072 16.2073C3.31668 15.8167 3.31668 15.1836 3.7072 14.793Z" fill="#6DD92A"/>
<path id="Line 2 (Stroke)" fill-rule="evenodd" clip-rule="evenodd" d="M11.7928 23.293C11.4023 22.9025 11.4023 22.2694 11.7928 21.8788L27.83 5.84169C28.2206 5.45116 28.8537 5.45117 29.2442 5.84169C29.6348 6.23222 29.6348 6.86538 29.2442 7.25591L13.207 23.293C12.8165 23.6836 12.1833 23.6836 11.7928 23.293Z" fill="#6DD92A"/>
</g>
</svg>
