<svg width="16" height="16" viewBox="0 0 16 16" fill="none" xmlns="http://www.w3.org/2000/svg">
<g id="contact-round">
<path id="Vector" d="M10.6663 12.0007C10.6663 11.2934 10.3854 10.6151 9.88529 10.115C9.3852 9.61494 8.70692 9.33398 7.99967 9.33398C7.29243 9.33398 6.61415 9.61494 6.11406 10.115C5.61396 10.6151 5.33301 11.2934 5.33301 12.0007" stroke="white" stroke-linecap="round" stroke-linejoin="round"/>
<path id="Vector_2" d="M8 9.33398C9.10457 9.33398 10 8.43855 10 7.33398C10 6.22941 9.10457 5.33398 8 5.33398C6.89543 5.33398 6 6.22941 6 7.33398C6 8.43855 6.89543 9.33398 8 9.33398Z" stroke="white" stroke-linecap="round" stroke-linejoin="round"/>
<path id="Vector_3" d="M12.6667 2.66602H3.33333C2.59695 2.66602 2 3.26297 2 3.99935V13.3327C2 14.0691 2.59695 14.666 3.33333 14.666H12.6667C13.403 14.666 14 14.0691 14 13.3327V3.99935C14 3.26297 13.403 2.66602 12.6667 2.66602Z" stroke="white" stroke-linecap="round" stroke-linejoin="round"/>
<path id="Vector_4" d="M5.33301 1.33398V2.66732" stroke="white" stroke-linecap="round" stroke-linejoin="round"/>
<path id="Vector_5" d="M10.667 1.33398V2.66732" stroke="white" stroke-linecap="round" stroke-linejoin="round"/>
</g>
</svg>
