<svg width="18" height="18" viewBox="0 0 18 18" fill="none" xmlns="http://www.w3.org/2000/svg">
<rect width="18" height="18" fill="#F5F5F5"/>
<g id="dashboard / Dealers">
<rect width="1440" height="800" transform="translate(-1351 -31)" fill="#F4F4F4"/>
<g id="header">
<rect id="Rectangle 1" x="-1351" y="-31" width="1440" height="80" fill="#F4F4F4"/>
<g id="Frame 1">
<g id="Frame 6">
<g id="log-out 1">
<g id="Group">
<path id="Vector" d="M7.67156 1.77373C8.00292 1.77373 8.27156 1.50509 8.27156 1.17373C8.27156 0.842359 8.00292 0.57373 7.67156 0.57373H3.07462C1.63866 0.57373 0.474609 1.73779 0.474609 3.17373V14.8264C0.474609 16.2623 1.63866 17.4264 3.0746 17.4264H7.67156C8.00292 17.4264 8.27156 17.1578 8.27156 16.8264C8.27156 16.495 8.00292 16.2264 7.67156 16.2264H3.0746C2.30142 16.2264 1.6746 15.5996 1.6746 14.8264L1.67462 3.17373C1.67462 2.40053 2.30142 1.77373 3.07462 1.77373H7.67156Z" fill="#9C8D7F"/>
<path id="Vector_2" d="M13.4044 4.36861C13.1701 4.13429 12.7902 4.13429 12.5559 4.36861C12.3216 4.60293 12.3216 4.98281 12.5559 5.21713L15.5259 8.18721H4.59945C4.26809 8.18721 3.99945 8.45583 3.99945 8.78721C3.99945 9.11857 4.26809 9.38721 4.59945 9.38721H15.4845L12.556 12.3158C12.3217 12.5501 12.3217 12.93 12.556 13.1643C12.7903 13.3986 13.1702 13.3986 13.4045 13.1643L17.3495 9.21929C17.4667 9.10209 17.5253 8.94847 17.5253 8.79485L17.5253 8.78721C17.5253 8.77827 17.5251 8.76937 17.5247 8.76053C17.5308 8.59951 17.4723 8.43653 17.3494 8.31361L13.4044 4.36861Z" fill="#9C8D7F"/>
</g>
</g>
</g>
</g>
</g>
</g>
</svg>
