<svg width="152" height="152" viewBox="0 0 152 152" fill="none" xmlns="http://www.w3.org/2000/svg">
<path d="M107.667 25.334H95C91.5022 25.334 88.6667 28.1695 88.6667 31.6673V120.334C88.6667 123.832 91.5022 126.667 95 126.667H107.667C111.164 126.667 114 123.832 114 120.334V31.6673C114 28.1695 111.164 25.334 107.667 25.334Z" fill="#9C8D7F"/>
<path d="M57 25.334H44.3333C40.8355 25.334 38 28.1695 38 31.6673V120.334C38 123.832 40.8355 126.667 44.3333 126.667H57C60.4978 126.667 63.3333 123.832 63.3333 120.334V31.6673C63.3333 28.1695 60.4978 25.334 57 25.334Z" fill="#9C8D7F"/>
</svg>
