<svg width="25" height="25" viewBox="0 0 25 25" fill="none" xmlns="http://www.w3.org/2000/svg">
<g id="bxs:phone-call">
<path id="Vector" d="M20.7417 11.223H22.8159C22.8159 5.98868 18.7992 2.04102 13.4717 2.04102V4.08168C17.6843 4.08168 20.7417 7.08452 20.7417 11.223Z" fill="#10101C"/>
<path id="Vector_2" d="M13.4825 8.16259C15.6635 8.16259 16.5938 9.07783 16.5938 11.2236H18.668C18.668 7.93301 16.8271 6.12192 13.4825 6.12192V8.16259ZM17.0314 13.7163C16.8322 13.5381 16.5703 13.443 16.3011 13.4512C16.032 13.4594 15.7766 13.5702 15.5889 13.7601L13.1071 16.2712C12.5097 16.1589 11.3088 15.7906 10.0726 14.5774C8.83636 13.3602 8.46197 12.1756 8.351 11.5919L10.9012 9.14925C11.0945 8.9647 11.2073 8.71339 11.2156 8.44849C11.2239 8.1836 11.1272 7.92591 10.9458 7.72997L7.11375 3.58435C6.9323 3.38779 6.68012 3.26857 6.41076 3.25199C6.1414 3.23542 5.87609 3.3228 5.67116 3.49559L3.42067 5.39443C3.24137 5.57147 3.13435 5.8071 3.11992 6.05662C3.10436 6.3117 2.80775 12.3541 7.57007 17.0415C11.7247 21.128 16.9288 21.4269 18.362 21.4269C18.5715 21.4269 18.7001 21.4208 18.7343 21.4188C18.9879 21.4048 19.2273 21.299 19.4064 21.1218L21.3354 18.9067C21.5111 18.7052 21.6001 18.4443 21.5835 18.1792C21.5668 17.9142 21.4458 17.6661 21.2462 17.4874L17.0314 13.7163Z" fill="#10101C"/>
</g>
</svg>
