<svg width="21" height="25" viewBox="0 0 21 25" fill="none" xmlns="http://www.w3.org/2000/svg">
<path id="Vector" d="M10.8271 0.976563C4.24803 0.977563 0.750977 5.19262 0.750977 9.78869C0.750977 11.9197 1.94199 14.5788 3.84902 15.4218C4.39303 15.6668 4.32103 15.3678 4.78903 13.5777C4.82603 13.4287 4.80703 13.2997 4.68703 13.1607C1.96099 10.0077 4.15502 3.5256 10.4381 3.5256C19.5312 3.5256 17.8322 16.1078 12.0201 16.1078C10.5221 16.1078 9.4061 14.9318 9.7591 13.4767C10.1871 11.7437 11.0251 9.88069 11.0251 8.63167C11.0251 5.48363 6.33506 5.95063 6.33506 10.1217C6.33506 11.4107 6.79106 12.2807 6.79106 12.2807C6.79106 12.2807 5.28204 18.3768 5.00204 19.5158C4.52803 21.4439 5.06604 24.5649 5.11304 24.8339C5.14204 24.9819 5.30804 25.0289 5.40104 24.9069C5.55004 24.7119 7.37407 22.1099 7.88508 20.2288C8.07108 19.5438 8.83409 16.7638 8.83409 16.7638C9.3371 17.6718 10.7871 18.4318 12.3321 18.4318C16.9282 18.4318 20.2503 14.3918 20.2503 9.37868C20.2343 4.57261 16.1212 0.976563 10.8271 0.976563Z" fill="black"/>
</svg>
