<svg width="33" height="31" viewBox="0 0 33 31" fill="none" xmlns="http://www.w3.org/2000/svg">
<g id="social media">
<ellipse id="Ellipse 796" cx="16.4337" cy="15.305" rx="16.4337" ry="15.305" fill="white"/>
<path id="Vector" fill-rule="evenodd" clip-rule="evenodd" d="M13.1808 7.65085C14.057 7.61452 14.3364 7.60645 16.5684 7.60645C18.8004 7.60645 19.0798 7.61519 19.9552 7.65085C20.8307 7.68651 21.4283 7.81234 21.9512 7.99468C22.4987 8.18106 22.9955 8.4724 23.4063 8.84919C23.8246 9.21858 24.1473 9.66535 24.3535 10.1592C24.5567 10.6302 24.6956 11.1685 24.7359 11.9557C24.7763 12.7463 24.7852 12.998 24.7852 15.0077C24.7852 17.0182 24.7755 17.2698 24.7359 18.0591C24.6963 18.8463 24.5567 19.3846 24.3535 19.8556C24.1473 20.3495 23.8241 20.797 23.4063 21.167C22.9955 21.5438 22.4987 21.8344 21.9512 22.0201C21.4283 22.2032 20.8307 22.3283 19.9567 22.3646C19.0798 22.401 18.8004 22.409 16.5684 22.409C14.3364 22.409 14.057 22.4003 13.1808 22.3646C12.3068 22.329 11.7093 22.2032 11.1864 22.0201C10.638 21.8344 10.1412 21.5433 9.7305 21.167C9.31247 20.7974 8.98898 20.3501 8.78257 19.8563C8.58014 19.3853 8.4412 18.847 8.40086 18.0598C8.36053 17.2692 8.35156 17.0175 8.35156 15.0077C8.35156 12.9973 8.36127 12.7456 8.40086 11.9571C8.44045 11.1685 8.58014 10.6302 8.78257 10.1592C8.98928 9.66541 9.31302 9.21812 9.73124 8.84852C10.1414 8.47206 10.6377 8.18068 11.1856 7.99468C11.7085 7.81234 12.3061 7.68719 13.1801 7.65085H13.1808ZM19.8887 8.98309C19.0222 8.94743 18.7623 8.94002 16.5684 8.94002C14.3745 8.94002 14.1146 8.94743 13.248 8.98309C12.4465 9.01606 12.0118 9.1365 11.722 9.2381C11.3388 9.37266 11.0646 9.53213 10.777 9.79117C10.5044 10.0301 10.2946 10.3209 10.163 10.6423C10.0502 10.9034 9.9165 11.295 9.87989 12.0169C9.8403 12.7974 9.83209 13.0316 9.83209 15.0077C9.83209 16.9839 9.8403 17.218 9.87989 17.9985C9.9165 18.7205 10.0502 19.1121 10.163 19.3732C10.2945 19.6941 10.5044 19.9855 10.777 20.2243C11.0422 20.4699 11.3656 20.659 11.722 20.7774C12.0118 20.879 12.4465 20.9994 13.248 21.0324C14.1146 21.0681 14.3738 21.0755 16.5684 21.0755C18.763 21.0755 19.0222 21.0681 19.8887 21.0324C20.6903 20.9994 21.125 20.879 21.4148 20.7774C21.798 20.6428 22.0722 20.4834 22.3598 20.2243C22.6324 19.9855 22.8423 19.6941 22.9738 19.3732C23.0866 19.1121 23.2203 18.7205 23.2569 17.9985C23.2965 17.218 23.3047 16.9839 23.3047 15.0077C23.3047 13.0316 23.2965 12.7974 23.2569 12.0169C23.2203 11.295 23.0866 10.9034 22.9738 10.6423C22.8244 10.2972 22.6474 10.0502 22.3598 9.79117C22.0945 9.54563 21.7717 9.35666 21.4148 9.2381C21.125 9.1365 20.6903 9.01606 19.8887 8.98309ZM15.5189 17.2894C16.105 17.5091 16.7577 17.5388 17.3654 17.3733C17.9731 17.2078 18.4982 16.8573 18.8509 16.3819C19.2036 15.9064 19.3622 15.3353 19.2994 14.7663C19.2367 14.1972 18.9565 13.6654 18.5068 13.2617C18.2202 13.0037 17.8735 12.8061 17.4919 12.6832C17.1103 12.5603 16.7032 12.5151 16.2999 12.5509C15.8965 12.5868 15.507 12.7027 15.1594 12.8904C14.8118 13.0781 14.5147 13.3329 14.2896 13.6364C14.0644 13.9399 13.9167 14.2846 13.8572 14.6457C13.7977 15.0068 13.8278 15.3753 13.9454 15.7247C14.063 16.074 14.2651 16.3956 14.5371 16.6661C14.8092 16.9367 15.1445 17.1495 15.5189 17.2894ZM13.582 12.3177C13.9741 11.9644 14.4397 11.6842 14.9521 11.493C15.4646 11.3019 16.0138 11.2035 16.5684 11.2035C17.123 11.2035 17.6722 11.3019 18.1846 11.493C18.6971 11.6842 19.1627 11.9644 19.5548 12.3177C19.947 12.671 20.2581 13.0903 20.4704 13.5519C20.6826 14.0135 20.7919 14.5082 20.7919 15.0077C20.7919 15.5073 20.6826 16.002 20.4704 16.4636C20.2581 16.9251 19.947 17.3445 19.5548 17.6978C18.7628 18.4112 17.6885 18.812 16.5684 18.812C15.4483 18.812 14.374 18.4112 13.582 17.6978C12.7899 16.9843 12.3449 16.0167 12.3449 15.0077C12.3449 13.9988 12.7899 13.0311 13.582 12.3177ZM21.7286 11.77C21.8258 11.6874 21.9036 11.5881 21.9574 11.478C22.0112 11.3678 22.0399 11.2491 22.0419 11.1287C22.0438 11.0084 22.0189 10.889 21.9687 10.7774C21.9185 10.6659 21.8439 10.5646 21.7495 10.4795C21.655 10.3944 21.5425 10.3273 21.4187 10.282C21.2949 10.2368 21.1623 10.2144 21.0287 10.2161C20.8951 10.2179 20.7633 10.2438 20.641 10.2922C20.5187 10.3407 20.4084 10.4108 20.3168 10.4983C20.1385 10.6686 20.0409 10.8947 20.0446 11.1287C20.0484 11.3628 20.1533 11.5862 20.3371 11.7517C20.5208 11.9172 20.7689 12.0117 21.0287 12.0151C21.2885 12.0185 21.5396 11.9306 21.7286 11.77Z" fill="#011C2A"/>
</g>
</svg>
