<svg width="100" height="100" viewBox="0 0 100 100" fill="none" xmlns="http://www.w3.org/2000/svg">
<circle cx="50" cy="50" r="50" transform="matrix(-1 0 0 1 100 0)" fill="#9C8D7F"/>
<path d="M35.5582 43.8037C35.2906 42.5983 35.3317 41.3449 35.6777 40.1596C36.0236 38.9744 36.6632 37.8957 37.5372 37.0235C38.4112 36.1513 39.4913 35.514 40.6772 35.1705C41.8632 34.827 43.1167 34.7886 44.3215 35.0587C44.9847 34.0216 45.8982 33.1681 46.9779 32.5769C48.0577 31.9857 49.2689 31.6758 50.4999 31.6758C51.7309 31.6758 52.9421 31.9857 54.0218 32.5769C55.1015 33.1681 56.0151 34.0216 56.6782 35.0587C57.8848 34.7874 59.1405 34.8257 60.3284 35.17C61.5162 35.5143 62.5977 36.1534 63.4723 37.028C64.3468 37.9025 64.9859 38.984 65.3302 40.1718C65.6745 41.3597 65.7128 42.6154 65.4415 43.822C66.4786 44.4851 67.3321 45.3987 67.9233 46.4784C68.5145 47.5582 68.8244 48.7693 68.8244 50.0003C68.8244 51.2313 68.5145 52.4425 67.9233 53.5223C67.3321 54.602 66.4786 55.5155 65.4415 56.1787C65.7116 57.3835 65.6732 58.637 65.3297 59.823C64.9862 61.0089 64.3489 62.089 63.4767 62.963C62.6046 63.837 61.5258 64.4766 60.3406 64.8226C59.1553 65.1685 57.9019 65.2096 56.6965 64.942C56.0343 65.9831 55.12 66.8402 54.0384 67.4341C52.9569 68.0279 51.7429 68.3393 50.509 68.3393C49.2752 68.3393 48.0612 68.0279 46.9796 67.4341C45.8981 66.8402 44.9838 65.9831 44.3215 64.942C43.1167 65.2121 41.8632 65.1737 40.6772 64.8302C39.4913 64.4867 38.4112 63.8493 37.5372 62.9772C36.6632 62.105 36.0236 61.0263 35.6777 59.8411C35.3317 58.6558 35.2906 57.4024 35.5582 56.197C34.5131 55.5356 33.6523 54.6207 33.0558 53.5372C32.4593 52.4538 32.1465 51.2371 32.1465 50.0003C32.1465 48.7636 32.4593 47.5469 33.0558 46.4634C33.6523 45.38 34.5131 44.4651 35.5582 43.8037Z" stroke="#10101C" stroke-width="2" stroke-linecap="round" stroke-linejoin="round"/>
<path d="M45 50.0007L48.6667 53.6673L56 46.334" stroke="#10101C" stroke-width="2" stroke-linecap="round" stroke-linejoin="round"/>
</svg>
